<?xml version="1.0" encoding="UTF-8"?>
<svg id="Layer_2" xmlns="http://www.w3.org/2000/svg" version="1.1" viewBox="0 0 704.12 514.65002">
  <!-- Generator: Adobe Illustrator 29.0.1, SVG Export Plug-In . SVG Version: 2.1.0 Build 192)  -->
  <defs>
    <style>
      .st0 {
        fill: #e4c88c;
      }
    </style>
  </defs>
  <g id="Layer_1-2">
    <g>
      <g>
        <path class="st0" d="M376.35999,383.79999c-3.23001-9.75-7.70999-18.16-13.44-25.20999-1.63-1.98999-3.35999-3.87-5.14999-5.59.14999-.04999.29001-.07001.44-.12,2.87-.88,5.54001-2.29001,7.97-4.17999,4.17999-3.31,7.39001-8.41,9.64999-15.29001,2.29001-6.88,3.39999-15.26999,3.39999-25.19v-121.32001c0-1.64999.04999-3.06.12-4.17999.10001-1.14.19-2.21001.26999-3.25999.10001-1.05.22-2.36.39001-3.91h-25.32999c.88,3.99001,1.42999,7.17,1.70001,9.53.26999,2.33.39001,5.25.39001,8.75v126.67c0,8.34-.78,14.44-2.32999,18.26001-1.34,3.23001-3.45001,5.42001-6.39001,6.56-1.82001-1.17001-3.70001-2.20999-5.64001-3.17999-7.92999-3.91-16.57999-5.85999-25.98999-5.85999-4.04001,0-7.97.32001-11.82001.95001-1.56,1.23999-3.14001,2.41-4.76999,3.5-8.82999,5.92999-17.97,9.51001-27.47,10.67001-4.54999,3.39999-8.75,7.26999-12.62,11.64999-7.28999,8.26999-13.10001,17.85001-17.36,28.70999-4.25,10.89001-6.39,22.42001-6.39,34.62,0,1.75.05,3.5.14999,5.23001h-54.48v16.44h37.37v35.79001c0,4.35001-2.48,7.88-7.46001,10.57999-4.96001,2.70001-11.42999,4.06-19.45,4.06-14.98,0-27.69-4.72-38.12-14.10001-8.36-7.32001-14.89999-16.67999-19.60001-28.07999-4.69-11.39999-7.05-23.29001-7.05-35.66998,0-5.39999.34-10.79001,1.05-16.19s1.60001-10.42999,2.75-15.14999c1.12-4.69,2.48-8.92001,4.03999-12.67001,1.58-3.73999,3.31-6.66,5.23-8.73001,3.48-4.01001,9.48-7.25,18.02-9.67999,8.53-2.42999,18.04001-3.64999,28.47-3.64999,3.31,0,6.44.17001,9.41.51001s5.96001.97,9.02,1.82001c3.03999.88,6.35001,2.04001,9.92,3.53,3.57001,1.48001,7.71001,3.35999,12.39999,5.62v-21.92999c-4.17999-1.56-7.92999-2.82001-11.23-3.79001-3.31-.95001-6.39-1.73001-9.25999-2.32999-1.99001-.41-3.96001-.75-5.88-1.01999l-7.97-10.45001-48.31-61.89999c3.84-1.04999,7.22-2.09,10.19-3.14001,2.97-1.04999,5.66-2.23999,8.10001-3.53,2.42999-1.31,4.74001-2.75,6.92999-4.3,2.16-1.58,4.3-3.39999,6.39-5.49001,5.06-4.89,8.97-10.28,11.74001-16.19,2.8-5.92999,4.17999-11.94,4.17999-18.02,0-7.14999-1.77-13.81-5.35001-19.99001-3.57001-6.17999-8.41-11.00999-14.49001-14.49001-3.67-2.09-7.59-3.62-11.77-4.57001-4.16-.97-9.14-1.42999-14.88-1.42999-1.39,0-3.14.02-5.23.12-2.09.10001-4.25.22-6.52.39-9.92.53-17.19.92-21.81,1.17-4.62.27-7.37.41-8.24.41h-9.14l1.05,8.87c.36,2.42999.66,4.47.92,6.13.27,1.64999.39,2.92.39,3.78999v141.82001c0,1.75-.07,3.31-.27,4.69l-.51,4.17999c-.17,1.41-.44,2.97-.78,4.72h24.8c-.17-1.57999-.29-2.89001-.39-3.91-.1-1.04999-.17-2.23999-.27-3.54999-.07-1.29001-.12-2.92001-.12-4.81v-73.13l43.88,55.89001c1.22,1.56,2.38,3.09,3.53,4.57001,1.12,1.48001,2.42999,3.26001,3.91,5.35001,1.39,1.97,3.03999,4.35001,4.96001,7.25-6.75999,1.12-13.23,3.10999-19.45,5.92999-10.38,4.69-19.33,11.09-26.91,19.17999-7.56,8.10001-13.54,17.67999-17.89,28.73999s-6.52,22.92999-6.52,35.63998c0,10.97,1.77,21.64001,5.35,32,3.57,10.35999,8.66,19.72,15.27,28.07999,7.32001,9.04001,15.8,15.92001,25.48,20.63998,9.64999,4.69,20.23,7.04999,31.73,7.04999,8.87,0,16.85001-1.23999,23.89999-3.67001,7.05-2.42999,13.88-6.26999,20.5-11.48001,2.42999-2.09,4.39999-3.94,5.88-5.48999,1.48-1.56,2.60001-3.31,3.38-5.23001.8-1.92001,1.31-4.23001,1.58-6.92999.27-2.67001.39-6.13.39-10.31v-20.28c.71001,3.06,1.58,6.07999,2.60001,9.04001,3.67,10.62,8.63,19.98999,14.90001,28.07999,6.26999,8.10001,13.57001,14.48999,21.92999,19.20999,8.35999,4.68997,17.23999,7.05002,26.64999,7.05002,12.01001,0,23.51001-3.72,34.48001-11.10999,10.95999-7.39001,20.28-17.72,27.94-30.95001,4.51999-7.82999,7.97-16.63,10.31-26.38,2.35999-9.75,3.53-19.94,3.53-30.56,0-11.48001-1.60001-22.10001-4.81-31.85001l-.07004-.01999ZM119.89,253.87v-66.32001c5.74.17,10.67.44,14.75999.78s7.61.83,10.58,1.42999c2.97.61,5.52,1.39,7.71001,2.36,2.16.95,4.21001,2.03999,6.13,3.25999,4.00999,2.42999,7.27,6.32001,9.8,11.62s3.78999,10.75,3.78999,16.31-1.14,10.36-3.39999,14.89999c-2.25999,4.52-5.3,7.73-9.14,9.64999-2.09,1.22-4.21001,2.19-6.39,2.87-2.16.71001-4.78999,1.25999-7.83,1.7-3.06.44-6.61.78-10.72,1.05-4.08.27-9.17.39-15.27.39l-.02.00005ZM358.35001,461.73999c-2.35999,9.34-5.54001,16.23999-9.54999,20.76001-3.48001,4.17999-8.12,7.42001-13.95999,9.67999-5.84,2.26001-12.23001,3.38-19.20999,3.38-9.92001,0-18.88998-2.29001-26.88998-6.89999-8.01999-4.62-14.54001-11.28-19.60001-19.98999-4.01001-6.78-7.04999-14.42001-9.14001-22.85001-2.09-8.44-3.14001-17.01999-3.14001-25.72,0-4.51999.26999-9.14001.78-13.82999.53-4.72,1.23999-9.23999,2.09-13.59.88-4.35001,1.92001-8.44,3.14001-12.28,1.22-3.82001,2.53-7.04999,3.91-9.64999,2.97-5.06,7.63-9.14001,13.98001-12.28,6.35001-3.14001,13.62-4.72,21.81-4.72,19.16,0,33.82001,6.70999,44.01001,20.13,10.19,13.39999,15.29001,32.54999,15.29001,57.45001,0,10.97-1.19,21.10001-3.53,30.42001l.00995-.01007Z"/>
        <path class="st0" d="M336.78,220.98c-3.20999-9.75-7.70999-18.16-13.44-25.21001-5.73999-7.05-12.57001-12.55-20.5-16.45999-7.92999-3.91-16.57999-5.86-25.98999-5.86-10.97,0-21.32001,2.38-31.07001,7.17s-18.28,11.31-25.60001,19.60001c-7.32001,8.27-13.10001,17.85001-17.36,28.70999-4.28,10.89-6.42,22.42-6.42,34.62s1.85001,23.32001,5.49001,33.94,8.63,19.98001,14.88,28.07999c6.27,8.10001,13.59,14.48999,21.95,19.20999,8.34,4.69,17.24001,7.04999,26.62,7.04999,2.35999,0,4.69-.14999,7-.44,9.51001-1.17001,18.64999-4.73999,27.47-10.67001,1.63-1.09,3.20999-2.26001,4.76999-3.5,8.95001-7.03,16.67999-16.19,23.19-27.45001,4.51999-7.82999,7.95001-16.63,10.31-26.38s3.53-19.94,3.53-30.56c0-11.48-1.60001-22.10001-4.84-31.85001l.01001.00008ZM318.76001,298.92999c-2.35999,9.31-5.51999,16.23999-9.53,20.76001-3.48001,4.17999-8.14001,7.42001-13.98001,9.67999-5.84,2.26001-12.23001,3.38-19.17999,3.38-9.92001,0-18.89001-2.31-26.91-6.89999-8-4.62-14.53999-11.28-19.57001-19.98001-4.00999-6.78-7.05-14.42001-9.14-22.85001-2.09-8.44-3.14-17.01999-3.14-25.72,0-4.52.27-9.14.78-13.83.53-4.72,1.22-9.24001,2.09-13.59.88-4.35001,1.92-8.44,3.14-12.28s2.53-7.05,3.91-9.64999c2.97-5.06,7.61-9.14,13.98-12.28,6.35001-3.14,13.62-4.72,21.81-4.72,19.13,0,33.82001,6.71001,44.01001,20.13,10.19,13.39999,15.26999,32.55,15.26999,57.45,0,10.97-1.17001,21.10001-3.53,30.42001l-.00998-.02002Z"/>
        <path class="st0" d="M73.13,181.28c-3.84-2.09-7.83-3.62-12.01-4.57001-4.18-.97-9.31-1.42999-15.41-1.42999-2.26,0-4.96.05-8.1.12-3.14.10001-6.44.22-9.92.39-2.97.17-5.45.32001-7.44.39-2.02.10001-3.62.14999-4.84.14999-1.92,0-4.01-.05-6.27-.14999-2.26-.07001-5.3-.28999-9.14-.63l.27,6.78c.17,1.92.32,3.60001.39,5.08.1,1.48.12,2.58.12,3.28v142.33c0,.88-.02,2.09-.12,3.67001-.07,1.56-.22,3.54999-.39,6.01001L0,349.75h24.82c-.71-4.89001-1.14-8.41-1.31-10.57999-.17-2.19-.27-4.23001-.27-6.14999v-55.63c6.61-.70999,12.45-1.48001,17.51-2.35999,5.06-.85001,9.53-1.89999,13.44-3.14001,3.91-1.22,7.44-2.70001,10.58-4.42001,3.14-1.75,6.27-3.84,9.41-6.26999,6.27-5.06,11.28-11.31,15.03-18.79001,3.74-7.49001,5.62-15.14999,5.62-23s-1.92-15.61-5.76-22.32001c-3.82-6.71001-9.14-11.99001-15.92-15.8l-.02-.00999ZM70.38,242.25999c-1.29,4.62-2.99,8.41-5.08,11.38-1.92,2.43001-4.5,4.21001-7.71,5.34999-3.23,1.12-7.61,1.70001-13.2,1.70001-4.16,0-11.23-.26999-21.15-.79999v-71.55c5.23.34,9.68.71001,13.32,1.05,3.67.34,6.83.78,9.53,1.31,2.7.50999,5.06,1.22,7.05,2.09,2.02.85001,3.96,1.89999,5.88,3.11,4.18,2.63,7.44,6.86,9.8,12.67,2.33,5.84,3.53,12.42,3.53,19.74001,0,4.69-.66,9.34-1.97,13.96001v-.01003Z"/>
        <path class="st0" d="M581.63,345.67999c3.84003-1.48001,8.27002-3.35999,13.32001-5.62v-13.82999c-8,2.97-14.32001,5.01001-18.94,6.13-4.62,1.14001-9.26001,1.70001-13.96002,1.70001-8.72998,0-16.84998-1.98999-24.42999-6.01001-7.56-4.01001-14.15002-9.53-19.71997-16.57999-5.57001-7.04999-9.97-15.37-13.17999-24.94-3.23001-9.57999-4.84-19.84-4.84-30.83,0-9.38,1-18.7,2.98999-27.94,2.01999-9.24001,4.76999-16.63,8.23999-22.2,2.76999-4.89,6.94998-8.36,12.51999-10.45,5.59003-2.09,13.32001-3.14,23.23999-3.14,4.54999,0,8.63.14999,12.28003.39,3.66998.27,7.25.8,10.71997,1.58s6.95001,1.82001,10.42999,3.14c3.5,1.31,7.41998,2.92,11.77002,4.84l-.27002-24.81999c-.88.17-1.77002.27-2.75.27h-1.94c-.71002,0-1.35999-.05-1.96997-.14999-.60999-.07001-1.34003-.22-2.21002-.39s-2.09003-.44-3.66998-.78c-1.56-.34-3.65002-.88-6.25-1.56-5.57001-1.41-10.78998-2.09-15.67999-2.09-10.78998,0-21.03003,2.42999-30.67999,7.28999-9.67999,4.89-18.23001,11.43001-25.72,19.60001-7.48999,8.19-13.42001,17.68001-17.76999,28.47-2.84,7.07001-4.76999,14.39-5.73999,21.93001v-.24001c-5.57001.50999-10.79001,1.05-15.66,1.56-9.23999,1.05-15.85001,1.58-19.86002,1.58h-24.01999v-62.7l24.01999,1.31c3.31.17,6.32001.34,9.01999.53,2.70001.17,5.35001.39,7.95001.63,2.63.27,5.37.58,8.23999.92s6.29999.78,10.31,1.31v-19.06h-83.56l.51001,6.78c.34,2.97.60999,5.35001.78,7.17s.26999,3.17999.26999,4.06v139.72002c0,.34-.10001,1.34-.26999,2.98999-.07001.63-.14999,1.34-.23999,2.09h-12.16c.53,5.03.88,9.04001,1.04999,12.01001.17001,2.97.26999,6.17999.26999,9.64999v130.58002l-1.31,14.37-.26999,7.59003h113.35001c13.59,0,26.14001-1.87,37.60999-5.62,11.5-3.73999,21.15002-9.01999,29-15.79999,4.85999-4.35001,9.21002-9.35999,13.06-15.03,3.82001-5.66,7.09998-11.69,9.79999-18.13998,2.70001-6.44,4.78998-13.14999,6.25-20.13,1.47998-6.95001,2.23999-14,2.23999-21.14999,0-10.42999-1.58002-20.45001-4.71997-30.03-3.14001-9.57999-7.56-17.94-13.29999-25.07001-3.21002-4.10999-6.88-7.73001-10.98999-10.82001,1.96997-.34,4.03998-.82999,6.15002-1.42999,3.31-.97,6.88-2.19,10.70001-3.67001l-.01007.02988ZM470.25,492.70001c-2.97.53-5.62,1-7.97,1.42999-2.35999.44-4.57001.79999-6.66,1.04999-2.09.26999-4.13.53-6.13.79999-2.01999.23999-4.23001.45999-6.66.63l-36.29999,2.35999v-149.22998h62.73001c.66,4.57001,1,7.85001,1,9.76999v133.17999l-.01001.01004ZM475.60001,333.16003c-2.09.23999-4.06.51001-5.88.78-1.82001.23999-3.79001.44-5.85999.51001-2.09.10001-4.62.22-7.59.39001l-38.39001,2.09v-71.28h25.84c2.45999,0,4.79001.01999,7.04999.12,2.26001.10001,4.72.26999,7.32001.53,2.63.23999,5.45001.60999,8.48999,1.01999,2.94.41,6.37.88,10.32999,1.39001.48999,6.64001,1.64999,13.35001,3.53,20.17999,2.5,9.20999,6.03,17.75,10.57999,25.57999,5.17999,9.14001,11.69,16.75,19.57001,22.78l-27.42001.97v-5.98001c-2.94.34-5.47.66-7.56.92001h-.00995ZM569.10999,398.03003c1.28998,6.37,1.94,14.25,1.94,23.63,0,6.10001-.34003,12.03-1.04999,17.76999-.67999,5.73999-1.65002,11.14001-2.87,16.19-1.21997,5.06-2.70001,9.63-4.45001,13.70999-1.72998,4.07999-3.65002,7.44-5.73999,10.04001-4.01001,5.06-9.96997,8.92001-17.89001,11.62-7.92999,2.70001-17.19,4.06-27.81,4.06-1.92001,0-4.39999-.04999-7.44-.12-3.04001-.10001-6.73001-.22-11.09-.41v-141.01001c4.69-.70999,8.66-1.19,11.85999-1.42999,3.23001-.26999,5.88-.39001,7.97-.39001,10.78998,0,20.45001,2.42999,28.97998,7.29001,8.53003,4.89001,15.34003,11.76999,20.37,20.63998,3.47998,5.91,5.88,12.06,7.20001,18.39999l.02002.01004Z"/>
        <path class="st0" d="M704.12,193.55c-1.90002-.36-3.73999-.66-5.46997-.92-1.75-.27-3.57001-.56-5.48999-.89999-4.34998-.88-7.39001-1.31-9.14001-1.31h-22.71002v142.59c0,1.22.12,2.79999.39001,4.69.23999,1.92001.56,4.17999.90002,6.81l.79999,5.23001h-24.56c.67999-4.54999,1.12-7.85001,1.28998-9.94.19-2.09.27002-3.98999.27002-5.73999v-143.64h-19.84003c-3.14001,0-6.37.22-9.67999.66s-8.09998,1.25999-14.34003,2.48l2.33002-18.28c5.92999.67999,10.71997,1.22,14.37,1.56,3.65002.36,6.76001.61,9.26001.8,2.53003.17,4.66998.28999,6.41998.39,1.72998.07001,3.54999.12,5.46997.12h45.97998c3.98999,0,7.32001-.22,9.91998-.66s6.09998-1.34,10.45001-2.75l3.38,18.82001.00006-.01003Z"/>
      </g>
      <g>
        <path class="st0" d="M263.28,0v151.53999h164.51999V0h-164.52002.00003ZM418.32001,142.06h-145.58002V9.46h145.58002v132.60001-.00002Z"/>
        <path class="st0" d="M408.73999,95.96c-.56-1.17-3.04001-4.98-6.03-9.31-5.28-7.68-12.16-17.02-12.84-16.48l-9.70001,7.97c-.17001.15-.22.39-.10001.58,3.01001,5.08,7.67999,8.95,11.67001,13.3,3.84,4.23,7.25,9.48,7.22,15.12-16.41,0-52.48999-.02-78.82001-.07.26999-4.69.44-9.36.35999-14.03-.04999-3.65-.10001-7.27-.14999-10.89,2.41-1.53,4.76999-3.14,7.10001-4.79,12.39999-8.9,29.59-19.52,35.79001-34.09,2.72-6.37,2.01999-12.93-.70999-19.47,2.63.1,5.23001.39,7.70999,1.19,3.79001,1.26,6.48999,18.87,7.73001,26.62.17001,1,1.01999,1.73,2.04001,1.73h10.89001c1.14001,0,2.07001-.92,2.07001-2.07-.07001-9.75-2.60001-31-7.78-34.09-5.39999-3.23-12.01001-3.4-18.28-3.5-5.95999-.1-11.91-.19-17.87-.29-6.17999-.88-12.5-.22-18.76999-.56-12.85999-.71-25.76999.1-38.61002-1.19-2.54999,0-5.10999-.05-7.63.02-1.45999.02-3.48001-.63-3.60001,1.77-.32001,5.93-.48999,11.86-.67999,17.82-.32001,8.68-.79999,17.36-.88,26.06-.14999,24.41-.07001,48.84-.29001,73.27999-.01999,1.97,0,4.06,1.07001,5.71001,1.41,2.14,8.66,4.89,10.09,1.82001.35999-.75.35999-1.63.35999-2.46001-.01999-6.13-.01999-12.23,0-18.36h16.23999c.56,0,1.07001.02,1.60001.1,0,5.11-.01999,10.24-.07001,15.34-.04999,4.94,1.75,7.14999,6.70999,7.14999,22.66-.10001,45.32001,0,67.98001-.17,2.67001-.02,5.29999-1.36,8-1.73,2.12-.28999,3.5-3.25999,5.51999-3.87,0-.02.01999-.02.01999-.02,4.06-3.7,8.34-7.39,11.60001-11.38.04999-.05.10001-.12.10001-.22.07001-.41.26999-.8.57999-1.14,6.60999-6.88,4.01001-17.77.34-25.43l.02002.02999ZM321.16998,29.08c.04999-1.19.14999-2.5.95001-3.43.97-1.14,2.67001-1.24,4.17999-1.26,4.91-.1,9.85001-.19,14.76001-.29,6.01001,2.07,10.5,6.95,9.51001,14.9-.73001,5.81-5.66,9.17-9.97,12.55-5.64001,4.47-11.31,8.95-17.20999,13.08-1,.71-2.01999,1.41-3.04001,2.09.01999-12.55.26999-25.07.82999-37.64h-.01001ZM290.84998,49.55c.22-7.42,1.26001-14.81,1.04999-22.17-.14999-4.59,2.42999-3.7,4.91-3.77,4.17999-.1,8.34-.22,12.5-.34-.10001,2.99-.19,5.96-.29001,8.92-.32001,8.68-.79999,17.36-.88,26.06-.01999,5.49-.04999,10.99-.07001,16.48-1.42999.92-2.87,1.87-4.28,2.82-3.38,2.31-6.59,4.81-10.53,6.13-1.67999.56-2.38-.61-2.42999-1.9-.12-3.65-.04999-7.32-.04999-10.97h.04999c0-7.1-.17001-14.2.01999-21.27l.00003.01001ZM290.86996,107.03h-.66c.07001-1.68.29001-3.36,1-4.89,2.42999-5.25,11.06-8.61,15.78-11.57.34-.22.70999-.44,1.04999-.66,0,5.71-.01999,11.43-.01999,17.16-8.12,0-14.32001-.02-17.14001-.05l-.00998.01001ZM393.07996,119.5c-3.67001,3.6-8.57999,7.22-13.69,8.22-4.76999.92-9.63.36-14.44.36-13.66,0-27.28-.05-40.94-.19-1.23999-.02-2.54999-.07-3.5-.83-1.39001-1.12-1.41-3.16-1.31-4.91.07001-1.41.17001-2.84.23999-4.25,21.82999.17,56.5.32,74.64001.56-.32001.36-.66.71-1,1.05v-.00999Z"/>
      </g>
    </g>
  </g>
</svg>