<?xml version="1.0" encoding="utf-8"?>
<!-- Generator: Adobe Illustrator 27.6.1, SVG Export Plug-In . SVG Version: 6.00 Build 0)  -->
<svg version="1.1" id="Layer_2_00000047768046615451101310000012080960705073629836_"
	 xmlns="http://www.w3.org/2000/svg" xmlns:xlink="http://www.w3.org/1999/xlink" x="0px" y="0px" viewBox="0 0 16 16"
	 style="enable-background:new 0 0 16 16;" xml:space="preserve">
<style type="text/css">
	.st0{fill:#1E1E1E;}
	.st1{fill:#E2CC94;}
</style>
<g>
	<path class="st1" d="M0,0.6v14.7h16V0.6H0L0,0.6z M15.1,14.4H0.9V1.6h14.2V14.4L15.1,14.4z"/>
	<path class="st1" d="M14.1,10c-0.1-0.1-0.3-0.5-0.6-0.9c-0.5-0.7-1.2-1.7-1.2-1.6l-0.9,0.8c0,0,0,0,0,0.1c0.3,0.5,0.7,0.9,1.1,1.3
		c0.4,0.4,0.7,0.9,0.7,1.5c-1.6,0-5.1,0-7.7,0c0-0.5,0-0.9,0-1.4c0-0.4,0-0.7,0-1.1C5.8,8.5,6,8.3,6.2,8.2c1.2-0.9,2.9-1.9,3.5-3.3
		C10,4.2,9.9,3.6,9.7,2.9c0.3,0,0.5,0,0.7,0.1c0.4,0.1,0.6,1.8,0.8,2.6c0,0.1,0.1,0.2,0.2,0.2h1.1c0.1,0,0.2-0.1,0.2-0.2
		c0-0.9-0.3-3-0.8-3.3C11.3,2,10.7,2,10.1,2c-0.6,0-1.2,0-1.7,0c-0.6-0.1-1.2,0-1.8-0.1C5.3,1.8,4,1.9,2.8,1.8c-0.2,0-0.5,0-0.7,0
		c-0.1,0-0.3-0.1-0.4,0.2c0,0.6,0,1.2-0.1,1.7c0,0.8-0.1,1.7-0.1,2.5c0,2.4,0,4.7,0,7.1c0,0.2,0,0.4,0.1,0.6c0.1,0.2,0.8,0.5,1,0.2
		c0-0.1,0-0.2,0-0.2c0-0.6,0-1.2,0-1.8h1.6c0.1,0,0.1,0,0.2,0c0,0.5,0,1,0,1.5c0,0.5,0.2,0.7,0.7,0.7c2.2,0,4.4,0,6.6,0
		c0.3,0,0.5-0.1,0.8-0.2c0.2,0,0.3-0.3,0.5-0.4c0,0,0,0,0,0c0.4-0.4,0.8-0.7,1.1-1.1c0,0,0,0,0,0c0,0,0-0.1,0.1-0.1
		C14.8,11.8,14.5,10.7,14.1,10L14.1,10z M5.6,3.5c0-0.1,0-0.2,0.1-0.3C5.8,3,6,3,6.1,3c0.5,0,1,0,1.4,0c0.6,0.2,1,0.7,0.9,1.4
		C8.4,5,7.9,5.3,7.5,5.6C7,6.1,6.4,6.5,5.8,6.9C5.7,7,5.6,7.1,5.6,7.1C5.6,5.9,5.6,4.7,5.6,3.5L5.6,3.5z M2.7,5.5
		c0-0.7,0.1-1.4,0.1-2.2c0-0.4,0.2-0.4,0.5-0.4c0.4,0,0.8,0,1.2,0c0,0.3,0,0.6,0,0.9c0,0.8-0.1,1.7-0.1,2.5c0,0.5,0,1.1,0,1.6
		C4.2,8,4.1,8.1,3.9,8.2c-0.3,0.2-0.6,0.5-1,0.6C2.8,8.8,2.7,8.7,2.7,8.6c0-0.4,0-0.7,0-1.1h0C2.7,6.8,2.7,6.1,2.7,5.5L2.7,5.5z
		 M2.7,11L2.7,11c-0.1-0.2,0-0.3,0-0.5C3,10.1,3.8,9.7,4.3,9.4c0,0,0.1,0,0.1-0.1c0,0.6,0,1.1,0,1.7C3.6,11,3,11,2.7,11L2.7,11z
		 M12.6,12.3c-0.4,0.4-0.8,0.7-1.3,0.8c-0.5,0.1-0.9,0-1.4,0c-1.3,0-2.7,0-4,0c-0.1,0-0.2,0-0.3-0.1c-0.1-0.1-0.1-0.3-0.1-0.5
		c0-0.1,0-0.3,0-0.4c2.1,0,5.5,0,7.3,0.1C12.7,12.2,12.7,12.2,12.6,12.3L12.6,12.3z"/>
</g>
</svg>
